/* XPM */
static char *destroy_stage_1[] = {
/* columns rows colors chars-per-pixel */
"16 16 3 1 ",
"  c black",
". c gray24",
"X c None",
/* pixels */
"XXXXXXXXXXXXXXXX",
"XXXXXXXXXXXXXXXX",
"XXXXXXXXXXXXXXXX",
"XXXXXXXXXXXXXXXX",
"XXXXXXXXXXXXXXXX",
"XXXXXX XXXXXXXXX",
"XXXXXX XXXXXXXXX",
"XXXXXX. X XXXXXX",
"XXXXXXX. .XXXXXX",
"XXXXXXXX XXXXXXX",
"XXXXXXXX.XXXXXXX",
"XXXXXXXXXXXXXXXX",
"XXXXXXXXXXXXXXXX",
"XXXXXXXXXXXXXXXX",
"XXXXXXXXXXXXXXXX",
"XXXXXXXXXXXXXXXX"
};
