/* XPM */
static char *destroy_stage_2[] = {
/* columns rows colors chars-per-pixel */
"16 16 3 1 ",
"  c black",
". c gray24",
"X c None",
/* pixels */
"XXXXXXXXXXXXXXXX",
"XXXXXXXXXXXXXXXX",
"XXXXXXXXXXXXXXXX",
"XXXXXXXXXXXXXXXX",
"XXXXXX XXXXXXXXX",
"XXXXXX XXXXXXXXX",
"XXXXXX XXX  XXXX",
"XXXXXX. X ..XXXX",
"XXXXXXX. .XXXXXX",
"XXXXXXXX XXXXXXX",
"XXXXXXXX XXXXXXX",
"XXXXXXX .XXXXXXX",
"XXXXXXX.XXXXXXXX",
"XXXXXXXXXXXXXXXX",
"XXXXXXXXXXXXXXXX",
"XXXXXXXXXXXXXXXX"
};
