/* XPM */
static char *destroy_stage_3[] = {
/* columns rows colors chars-per-pixel */
"16 16 3 1 ",
"  c black",
". c gray24",
"X c None",
/* pixels */
"XXXXXXXXXXXXXXXX",
"XXXXXXXXXXXXXXXX",
"XXXXXXXXXXXXXXXX",
"XXXXXXX XXXXXXXX",
"XXXXXX .XXXXXXXX",
"XXXXXX XX XX XXX",
"XXXXX  XX.  .XXX",
"XXXXX.. X ..XXXX",
"XXXXXXX. .XXXXXX",
"XXXXXXXX XXXXXXX",
"XXXXXXXX XXXXXXX",
"XXXXXX  .XXXXXXX",
"XXXXXX..XXXXXXXX",
"XXXXXXXXXXXXXXXX",
"XXXXXXXXXXXXXXXX",
"XXXXXXXXXXXXXXXX"
};
